<svg width="16" height="16" viewBox="0 0 11 12" fill="none" xmlns="http://www.w3.org/2000/svg">
<path d="M6 0.75C6 0.335156 5.66484 0 5.25 0C4.83516 0 4.5 0.335156 4.5 0.75V5.68828L3.52969 4.71797C3.23672 4.425 2.76094 4.425 2.46797 4.71797C2.175 5.01094 2.175 5.48672 2.46797 5.77969L4.71797 8.02969C5.01094 8.32266 5.48672 8.32266 5.77969 8.02969L8.02969 5.77969C8.32266 5.48672 8.32266 5.01094 8.02969 4.71797C7.73672 4.425 7.26094 4.425 6.96797 4.71797L6 5.68828V0.75ZM1.5 7.5C0.672656 7.5 0 8.17266 0 9V9.75C0 10.5773 0.672656 11.25 1.5 11.25H9C9.82734 11.25 10.5 10.5773 10.5 9.75V9C10.5 8.17266 9.82734 7.5 9 7.5H7.90078L6.57422 8.82656C5.84297 9.55781 4.65469 9.55781 3.92344 8.82656L2.59922 7.5H1.5ZM8.625 8.8125C8.93672 8.8125 9.1875 9.06328 9.1875 9.375C9.1875 9.68672 8.93672 9.9375 8.625 9.9375C8.31328 9.9375 8.0625 9.68672 8.0625 9.375C8.0625 9.06328 8.31328 8.8125 8.625 8.8125Z" fill="#323232"/>
</svg>
